<svg width="367.000000" height="241.000000" viewBox="0 0 367 241" fill="none" xmlns="http://www.w3.org/2000/svg" xmlns:xlink="http://www.w3.org/1999/xlink">
	<desc>
			Created with Pixso.
	</desc>
	<defs>
		<clipPath id="clip119_107">
			<rect id="undraw_completing_6bhr 1" width="367.000000" height="241.000000" fill="white" fill-opacity="0"/>
		</clipPath>
	</defs>
	<rect id="undraw_completing_6bhr 1" width="367.000000" height="241.000000" fill="#FFFFFF" fill-opacity="0"/>
	<g clip-path="url(#clip119_107)">
		<path id="Vector" d="M356.729 137.197L290.276 193.731L275.736 206.099L235.05 205.851L200.326 205.64L197.442 205.623L190.396 197.354L162.38 164.482L148.316 147.979L144.088 143.019L141.029 139.429L134.213 131.43L123.176 118.481L134.354 108.972L145.029 99.8896L152.703 93.3621L249.319 11.1685L356.729 137.197Z" fill="#F1DDC9" fill-opacity="1.000000" fill-rule="nonzero"/>
		<path id="Vector" d="M31.1182 32.6677L158.478 32.6677L158.478 124.654L31.1182 124.654L31.1182 32.6677Z" fill="#3F3D56" fill-opacity="1.000000" fill-rule="evenodd"/>
		<path id="Vector" d="M185.745 222.731L305.726 222.731L305.726 223.372L185.745 223.372L185.745 222.731Z" fill="#3F3D56" fill-opacity="1.000000" fill-rule="evenodd"/>
		<path id="Vector" d="M363.768 205.744L267.733 205.744C267.733 205.744 265.787 177.219 277.305 176.895C288.822 176.571 287.524 189.537 301.962 171.709C316.399 153.881 333.919 154.853 336.19 165.388C338.461 175.923 331.811 184.35 343.977 181.757C356.144 179.164 373.663 185.971 363.768 205.744Z" fill="#D84727" fill-opacity="1.000000" fill-rule="nonzero"/>
		<path id="Vector" d="M314.13 205.75L313.806 205.737C314.562 186.957 318.498 174.89 321.668 168.075C325.109 160.675 328.426 157.679 328.458 157.649L328.674 157.892C328.642 157.921 325.364 160.887 321.95 168.237C318.798 175.024 314.883 187.041 314.13 205.75Z" fill="#F2F2F2" fill-opacity="1.000000" fill-rule="nonzero"/>
		<path id="Vector" d="M348.887 205.789L348.575 205.698C352.325 192.838 361.157 184.717 361.246 184.637L361.464 184.877C361.376 184.957 352.61 193.019 348.887 205.789Z" fill="#F2F2F2" fill-opacity="1.000000" fill-rule="nonzero"/>
		<path id="Vector" d="M282.859 205.766L282.538 205.721C283.811 196.553 281.512 189.44 279.359 185.087C277.029 180.374 274.37 177.8 274.344 177.774L274.568 177.54C274.596 177.566 277.295 180.18 279.65 184.943C281.823 189.337 284.144 196.516 282.859 205.766Z" fill="#F2F2F2" fill-opacity="1.000000" fill-rule="nonzero"/>
		<path id="Vector" d="M13.7949 205.744L367 205.744L367 206.385L13.7949 206.385L13.7949 205.744Z" fill="#3F3D56" fill-opacity="1.000000" fill-rule="evenodd"/>
		<path id="Vector" d="M232.498 12.6324L262.877 12.6324L262.877 50.3409L232.498 50.3409L232.498 12.6324Z" fill="#2F2E41" fill-opacity="1.000000" fill-rule="evenodd"/>
		<path id="Vector" d="M207.413 188.529L203.271 203.704L210.175 208.763L212.016 207.383L215.237 191.748L207.413 188.529Z" fill="#F4C782" fill-opacity="1.000000" fill-rule="nonzero"/>
		<path id="Vector" d="M259.425 187.149L258.044 205.544L266.789 205.544L266.789 188.529L259.425 187.149Z" fill="#F4C782" fill-opacity="1.000000" fill-rule="nonzero"/>
		<path id="Vector" d="M231.808 70.8048L231.808 81.8413L248.838 84.6006L263.567 78.6224L260.806 71.7244L231.808 70.8048Z" fill="#F4C782" fill-opacity="1.000000" fill-rule="nonzero"/>
		<path id="Vector" d="M245.616 80.002L230.888 77.2428L227.205 107.134L218 144.382C218 144.382 204.191 176.113 206.032 183.471L206.953 185.77L206.032 189.909L215.238 193.588L218.92 187.609C218.92 187.609 221.682 191.748 226.284 183.011C230.888 174.273 250.219 120.01 250.219 120.01L253.441 129.207C252.607 132.044 252.45 135.036 252.98 137.944C253.901 142.543 254.822 156.799 254.822 156.799C254.822 156.799 249.759 181.631 256.663 183.471L258.044 188.989L267.71 189.909L269.551 184.39C269.551 184.39 278.757 181.171 276.455 165.076C274.154 148.981 273.233 96.0971 273.233 96.0971L264.165 73.7597L245.616 80.002Z" fill="#2F2E41" fill-opacity="1.000000" fill-rule="nonzero"/>
		<path id="Vector" d="M206.032 202.785C206.032 202.785 203.73 200.945 202.811 201.405C201.89 201.865 192.224 214.281 192.224 214.281C192.224 214.281 182.098 222.099 189.462 223.019C196.827 223.938 217.079 213.821 217.079 211.522C217.079 209.223 212.823 203.464 212.823 203.464C212.823 203.464 209.715 206.004 206.032 202.785Z" fill="#2F2E41" fill-opacity="1.000000" fill-rule="nonzero"/>
		<path id="Vector" d="M257.123 201.405C257.123 201.405 265.408 200.891 266.789 202.298C268.17 203.704 267.71 210.602 267.71 210.602C267.71 210.602 268.631 223.019 261.266 223.019C253.901 223.019 255.742 214.741 255.742 214.741L257.123 201.405Z" fill="#2F2E41" fill-opacity="1.000000" fill-rule="nonzero"/>
		<path id="Vector" d="M260.345 18.8405C260.345 25.1899 255.193 30.337 248.838 30.337C242.483 30.337 237.331 25.1899 237.331 18.8405C237.331 12.4912 242.483 7.34402 248.838 7.34402C255.193 7.34402 260.345 12.4912 260.345 18.8405Z" fill="#F4C782" fill-opacity="1.000000" fill-rule="evenodd"/>
		<path id="Vector" d="M241.243 25.9684C241.243 25.9684 247.688 33.786 234.8 39.7642C221.911 45.7424 244.005 70.5748 244.005 70.5748C244.005 70.5748 269.78 60.9178 267.479 42.0635C267.479 42.0635 251.83 39.3043 255.512 26.4282L241.243 25.9684Z" fill="#F4C782" fill-opacity="1.000000" fill-rule="nonzero"/>
		<path id="Vector" d="M234.339 39.3043C234.339 39.3043 223.753 37.9247 223.293 46.6621C222.832 55.3994 223.293 76.553 223.293 76.553C223.293 76.553 218.689 94.9474 220.991 111.043C220.991 111.043 218.229 129.897 225.594 128.977C232.958 128.057 227.435 109.663 227.435 109.663L230.657 79.772L229.276 57.6987L235.26 44.3628L234.339 39.3043Z" fill="#F4C782" fill-opacity="1.000000" fill-rule="nonzero"/>
		<path id="Vector" d="M264.807 41.3359C264.807 41.3359 274.844 41.1438 275.305 48.5015C275.765 55.8593 272.083 78.3925 272.083 78.3925L266.56 81.1517L261.496 65.5164L264.807 41.3359Z" fill="#F4C782" fill-opacity="1.000000" fill-rule="nonzero"/>
		<path id="Vector" d="M267.71 79.0823L266.789 81.3815L269.551 88.2795C269.551 88.2795 258.504 97.0168 259.425 98.8563C260.345 100.696 265.408 96.5569 265.408 96.5569L272.772 100.236C272.772 100.236 278.757 93.7978 275.995 87.8196C273.233 81.8414 272.166 77.871 272.166 77.871C272.166 77.871 268.17 77.7027 267.71 79.0823Z" fill="#F4C782" fill-opacity="1.000000" fill-rule="nonzero"/>
		<path id="Vector" d="M232.268 37.6948L230.887 52.8702C230.887 52.8702 224.443 59.3083 231.808 68.0456L230.887 74.9435C230.887 74.9435 247.917 74.0238 251.14 74.9435C254.361 75.8632 264.312 74.2031 264.312 74.2031L264.487 68.9653C264.487 68.9653 269.09 62.5273 267.709 52.8702C266.328 43.2131 267.709 39.9941 267.709 39.9941L264.487 39.5342C264.487 39.5342 262.416 53.56 248.147 54.9396C248.147 54.9396 230.427 56.5491 235.489 37.6948L232.268 37.6948Z" fill="#D84727" fill-opacity="1.000000" fill-rule="nonzero"/>
		<path id="Vector" d="M249.988 0.216187C249.988 0.216187 238.021 -0.525024 235.26 6.91C232.498 14.345 227.665 18.2484 227.665 18.2484C227.665 18.2484 220.052 23.5355 223.858 32.9738C223.858 32.9738 212.016 40.9252 219.84 47.9884C219.84 47.9884 219.38 55.0517 223.982 59.8845C223.982 59.8845 227.665 61.7432 226.284 62.8585C224.903 63.9737 235.49 63.2302 234.569 53.1929C233.648 43.1556 239.862 36.0853 239.862 36.0853C239.862 36.0853 233.879 23.0716 236.641 18.6106C238.317 15.9021 239.037 13.8824 240.43 12.7134C241.204 12.078 241.923 11.377 242.578 10.6183C243.197 9.83636 244.038 9.25928 244.99 8.96246C245.943 8.66565 246.963 8.6629 247.917 8.95462C252.06 10.0699 252.98 13.4156 252.98 13.4156C252.98 13.4156 255.973 21.4083 261.035 25.1258C266.099 28.8433 257.123 35.3489 257.123 35.3489C257.123 35.3489 258.684 43.0083 262.736 47.543C266.789 52.0777 261.568 56.0305 261.266 56.5387C260.575 57.6987 257.818 65.024 269.208 65.0565C269.208 65.0565 271.852 59.5127 275.534 56.1669C279.217 52.8212 276.455 43.1556 276.455 43.1556C276.455 43.1556 281.979 39.8099 275.994 31.6314C275.994 31.6314 277.836 24.1964 272.772 19.3636C272.772 19.3636 265.639 -2.38608 249.988 0.216187Z" fill="#2F2E41" fill-opacity="1.000000" fill-rule="nonzero"/>
		<path id="Vector" d="M237.562 18.6106C237.562 19.6265 237.046 20.4501 236.41 20.4501C235.775 20.4501 235.26 19.6265 235.26 18.6106C235.26 17.5947 235.775 16.7712 236.41 16.7712C237.046 16.7712 237.562 17.5947 237.562 18.6106Z" fill="#FFB8B8" fill-opacity="1.000000" fill-rule="evenodd"/>
		<path id="Vector" d="M190.237 240.679L0.321289 240.679C0.321289 240.679 -3.52832 184.27 19.248 183.628C42.0254 182.987 39.459 208.628 68.0107 173.372C96.5625 138.116 131.209 140.039 135.7 160.872C140.191 181.705 127.038 198.372 151.099 193.244C175.159 188.116 209.806 201.577 190.237 240.679Z" fill="#D84727" fill-opacity="1.000000" fill-rule="nonzero"/>
		<path id="Vector" d="M92.0723 240.692L91.4316 240.667C92.9268 203.527 100.712 179.664 106.979 166.186C113.785 151.551 120.344 145.627 120.409 145.569L120.835 146.048C120.771 146.105 114.289 151.971 107.538 166.506C101.305 179.928 93.5615 203.692 92.0723 240.692Z" fill="#F2F2F2" fill-opacity="1.000000" fill-rule="nonzero"/>
		<path id="Vector" d="M160.809 240.769L160.192 240.59C167.609 215.156 185.074 199.098 185.25 198.939L185.682 199.413C185.507 199.571 168.173 215.516 160.809 240.769Z" fill="#F2F2F2" fill-opacity="1.000000" fill-rule="nonzero"/>
		<path id="Vector" d="M30.2334 240.724L29.5977 240.635C32.1133 222.504 27.5684 208.436 23.3125 199.828C18.7031 190.508 13.4453 185.417 13.3926 185.367L13.8369 184.904C13.8896 184.955 19.2295 190.124 23.8877 199.544C28.1836 208.233 32.7715 222.431 30.2334 240.724Z" fill="#F2F2F2" fill-opacity="1.000000" fill-rule="nonzero"/>
		<path id="Vector" d="M0 240.359L268.513 240.359L268.513 241L0 241L0 240.359Z" fill="#3F3D56" fill-opacity="1.000000" fill-rule="evenodd"/>
		<path id="Vector" d="M181.254 124.975L30.7969 124.975L30.7969 5.74469L181.254 5.74469L181.254 124.975ZM31.4385 124.334L180.612 124.334L180.612 6.38571L31.4385 6.38571L31.4385 124.334Z" fill="#3F3D56" fill-opacity="1.000000" fill-rule="nonzero"/>
		<path id="Vector" d="M49.4033 54.7829C49.4033 57.7922 46.9619 60.2316 43.9502 60.2316C40.9375 60.2316 38.4961 57.7922 38.4961 54.7829C38.4961 51.7737 40.9375 49.3342 43.9502 49.3342C46.9619 49.3342 49.4033 51.7737 49.4033 54.7829Z" fill="#D84727" fill-opacity="1.000000" fill-rule="evenodd"/>
		<path id="Vector" d="M64.8027 54.7829C64.8027 57.7922 62.3613 60.2316 59.3496 60.2316C56.3369 60.2316 53.8955 57.7922 53.8955 54.7829C53.8955 51.7737 56.3369 49.3342 59.3496 49.3342C62.3613 49.3342 64.8027 51.7737 64.8027 54.7829Z" fill="#D0CDE1" fill-opacity="1.000000" fill-rule="evenodd"/>
		<g opacity="0.500000">
			<path id="Vector" d="M80.2012 54.7829C80.2012 57.7922 77.7598 60.2316 74.748 60.2316C71.7354 60.2316 69.2939 57.7922 69.2939 54.7829C69.2939 51.7737 71.7354 49.3342 74.748 49.3342C77.7598 49.3342 80.2012 51.7737 80.2012 54.7829Z" fill="#D84727" fill-opacity="1.000000" fill-rule="evenodd"/>
		</g>
		<path id="Vector" d="M95.5996 54.7829C95.5996 57.7922 93.1582 60.2316 90.1465 60.2316C87.1338 60.2316 84.6924 57.7922 84.6924 54.7829C84.6924 51.7737 87.1338 49.3342 90.1465 49.3342C93.1582 49.3342 95.5996 51.7737 95.5996 54.7829Z" fill="#F2F2F2" fill-opacity="1.000000" fill-rule="evenodd"/>
		<path id="Vector" d="M105.865 52.2189L150.777 52.2189L150.777 57.347L105.865 57.347L105.865 52.2189Z" fill="#F2F2F2" fill-opacity="1.000000" fill-rule="evenodd"/>
		<path id="Vector" d="M107.148 91.0007C107.148 99.1434 100.542 105.744 92.3916 105.744C84.2422 105.744 77.6348 99.1434 77.6348 91.0007C77.6348 82.8581 84.2422 76.2572 92.3916 76.2572C100.542 76.2572 107.148 82.8581 107.148 91.0007Z" fill="#F2F2F2" fill-opacity="1.000000" fill-rule="evenodd"/>
		<path id="Vector" d="M92.4531 95.4393L85.0684 88.0612C84.8271 87.8207 84.6924 87.4946 84.6924 87.1545C84.6924 86.8145 84.8271 86.4884 85.0684 86.248C85.3086 86.0075 85.6357 85.8724 85.9756 85.8724C86.3164 85.8724 86.6426 86.0075 86.8828 86.248L92.3301 91.6902L109.713 71.8864C109.824 71.7598 109.959 71.6562 110.11 71.5818C110.261 71.5073 110.426 71.4633 110.594 71.4523C110.762 71.4413 110.931 71.4635 111.09 71.5176C111.25 71.5717 111.396 71.6567 111.523 71.7677C111.65 71.8787 111.754 72.0135 111.828 72.1646C111.903 72.3156 111.947 72.4797 111.958 72.6477C111.969 72.8157 111.947 72.9842 111.893 73.1436C111.839 73.303 111.754 73.4503 111.643 73.5768L92.4531 95.4393Z" fill="#D84727" fill-opacity="1.000000" fill-rule="nonzero"/>
	</g>
</svg>
