<svg width="48" height="48" viewBox="0 0 48 48" fill="none" xmlns="http://www.w3.org/2000/svg">
<path fill-rule="evenodd" clip-rule="evenodd" d="M19.9314 14.0524L23.8366 10.1512V19.7938C23.8366 20.1575 24.1294 20.4514 24.496 20.4514C24.8627 20.4514 25.1554 20.1575 25.1554 19.7938V10.1865L29.0511 14.0781C29.1883 14.2151 29.3605 14.2794 29.5095 14.2794C29.6585 14.2794 29.8307 14.2151 29.9679 14.0781C30.2124 13.8339 30.2124 13.4095 29.9679 13.1653L24.9544 8.1571C24.7574 7.96029 24.2882 7.93074 24.025 8.16972L19.0242 13.1653C18.7827 13.4065 18.7797 13.8234 19.0152 14.0689C19.3067 14.3357 19.6903 14.3066 19.9221 14.0622L19.9314 14.0524ZM18.3175 14.7856C17.6819 14.1507 17.6819 13.0927 18.3175 12.4578L23.3309 7.44962C23.9664 6.85005 25.0609 6.85005 25.6611 7.44962L30.6746 12.4578C31.3101 13.0927 31.3101 14.1507 30.6746 14.7856C30.3568 15.103 29.9332 15.2794 29.5095 15.2794C29.0858 15.2794 28.6622 15.103 28.3444 14.7856L26.1554 12.5989V19.7938C26.1554 20.7108 25.414 21.4514 24.496 21.4514C23.5781 21.4514 22.8366 20.7108 22.8366 19.7938V12.5636L20.6477 14.7503C20.0121 15.4204 18.9883 15.4204 18.3175 14.7856Z" fill="#999999"/>
<path fill-rule="evenodd" clip-rule="evenodd" d="M31.0479 20.3754L31.0489 20.3766L35.6449 25.2378H13.3486L17.9457 20.3754C18.1918 20.1159 18.1891 19.7327 17.9235 19.4719C17.6292 19.2181 17.2326 19.2467 16.9975 19.4929L16.1775 20.3676C15.6816 20.8966 15.0163 21.6063 14.339 22.3292C12.9806 23.779 11.5831 25.2716 11.3936 25.4782L11.3789 25.4942L11.3635 25.5096C11.2726 25.6004 11.1474 25.7773 11.0688 25.9885C10.9907 26.1983 10.9876 26.3604 11.018 26.4669L11.02 26.4739L14.3376 38.7432C14.4665 39.1716 14.8594 39.4616 15.2819 39.4616H33.7117C34.1341 39.4616 34.527 39.1717 34.6559 38.7433L37.9735 26.4739L37.9755 26.4669C38.0491 26.2097 37.9514 25.8563 37.6043 25.4829C37.3765 25.2378 35.9752 23.7411 34.6279 22.3026L32.0081 19.5058L31.9975 19.4945C31.7359 19.2186 31.3441 19.2125 31.0803 19.4621C30.8046 19.723 30.7986 20.1126 31.0479 20.3754ZM32.7231 18.8063C32.0876 18.1362 31.0637 18.101 30.3929 18.7358C29.7221 19.3707 29.6868 20.3935 30.3223 21.0636L33.3233 24.2378H15.6702L18.6713 21.0636C19.3068 20.3935 19.2715 19.3707 18.6006 18.7358C17.9298 18.1362 16.906 18.1362 16.2704 18.8063C16.2704 18.8063 11.0451 24.3789 10.6568 24.8021C10.2684 25.19 9.84473 26.0012 10.0566 26.7419L13.3753 39.0155C13.6225 39.862 14.3992 40.4616 15.2819 40.4616H33.7117C34.5943 40.4616 35.3711 39.862 35.6182 39.0155L38.937 26.7419C39.1488 26.0012 38.7958 25.2959 38.3368 24.8021C37.8778 24.3083 32.7231 18.8063 32.7231 18.8063ZM20.8364 35.2417C20.8364 36.3946 19.8934 37.3351 18.7419 37.3351C17.5904 37.3351 16.6474 36.3946 16.6474 35.2417V29.4929C16.6474 28.34 17.5904 27.3995 18.7419 27.3995C19.8934 27.3995 20.8364 28.34 20.8364 29.4929V35.2417ZM26.5913 35.2417C26.5913 36.3946 25.6483 37.3351 24.4968 37.3351C23.3453 37.3351 22.4023 36.3946 22.4023 35.2417V29.4929C22.4023 28.34 23.3453 27.3995 24.4968 27.3995C25.6483 27.3995 26.5913 28.34 26.5913 29.4929V35.2417ZM32.3462 35.2417C32.3462 36.3946 31.4032 37.3351 30.2517 37.3351C29.1002 37.3351 28.1572 36.3946 28.1572 35.2417V29.4929C28.1572 28.34 29.1002 27.3995 30.2517 27.3995C31.4032 27.3995 32.3462 28.34 32.3462 29.4929V35.2417ZM18.7419 36.3351C19.3421 36.3351 19.8364 35.8413 19.8364 35.2417V29.4929C19.8364 28.8933 19.3421 28.3995 18.7419 28.3995C18.1417 28.3995 17.6474 28.8933 17.6474 29.4929V35.2417C17.6474 35.8413 18.1417 36.3351 18.7419 36.3351ZM24.4968 36.3351C25.097 36.3351 25.5913 35.8413 25.5913 35.2417V29.4929C25.5913 28.8933 25.097 28.3995 24.4968 28.3995C23.8966 28.3995 23.4023 28.8933 23.4023 29.4929V35.2417C23.4023 35.8413 23.8966 36.3351 24.4968 36.3351ZM30.2517 36.3351C30.8519 36.3351 31.3462 35.8413 31.3462 35.2417V29.4929C31.3462 28.8933 30.8519 28.3995 30.2517 28.3995C29.6515 28.3995 29.1572 28.8933 29.1572 29.4929V35.2417C29.1572 35.8413 29.6515 36.3351 30.2517 36.3351Z" fill="#999999"/>
</svg>
