<svg width="46" height="46" viewBox="0 0 46 46" fill="none" xmlns="http://www.w3.org/2000/svg">
<path fill-rule="evenodd" clip-rule="evenodd" d="M34.45 12.75H8.05C7.05589 12.75 6.25 13.5559 6.25 14.55V34.95C6.25 35.9441 7.05589 36.75 8.05 36.75H34.45C35.4441 36.75 36.25 35.9441 36.25 34.95V14.55C36.25 13.5559 35.4441 12.75 34.45 12.75ZM35.05 34.95C35.05 35.2814 34.7813 35.55 34.45 35.55H8.04995C7.71858 35.55 7.44995 35.2814 7.44995 34.95V14.55C7.44995 14.2187 7.71858 13.95 8.04995 13.95H34.45C34.7813 13.95 35.05 14.2187 35.05 14.55V34.95ZM14.0499 19.95C14.3812 19.95 14.6499 19.6814 14.6499 19.35C14.6499 19.0186 14.3812 18.75 14.0499 18.75H10.4499C10.1185 18.75 9.84985 19.0186 9.84985 19.35C9.84985 19.6814 10.1185 19.95 10.4499 19.95H14.0499ZM21.2499 19.95H16.4499C16.1185 19.95 15.8499 19.6814 15.8499 19.35C15.8499 19.0186 16.1185 18.75 16.4499 18.75H21.2499C21.5813 18.75 21.8499 19.0186 21.8499 19.35C21.8499 19.6814 21.5813 19.95 21.2499 19.95ZM26.0502 25.51C26.7529 25.0156 27.591 24.7502 28.4502 24.75C30.2593 24.749 31.8655 25.9071 32.436 27.6238C33.0066 29.3405 32.4131 31.2297 30.9634 32.3117C29.5136 33.3938 27.5337 33.4254 26.0502 32.3901C24.3047 33.6127 21.9201 33.3343 20.5033 31.7423C19.0864 30.1504 19.0864 27.7496 20.5033 26.1577C21.9201 24.5658 24.3047 24.2873 26.0502 25.51ZM23.65 31.95C21.9932 31.95 20.65 30.6068 20.65 28.95C20.65 27.2931 21.9932 25.95 23.65 25.95C25.3069 25.95 26.65 27.2931 26.65 28.95C26.6481 30.6061 25.3061 31.9481 23.65 31.95ZM26.9427 31.5287C27.3985 31.8014 27.919 31.9469 28.4501 31.95C30.1069 31.95 31.4501 30.6068 31.4501 28.95C31.4501 27.2931 30.1069 25.95 28.4501 25.95C27.919 25.953 27.3985 26.0985 26.9427 26.3712C28.1525 27.8775 28.1525 30.0224 26.9427 31.5287Z" fill="#999999"/>
<path d="M39.25 15.75C39.25 19.0637 36.5637 21.75 33.25 21.75C29.9363 21.75 27.25 19.0637 27.25 15.75C27.25 12.4363 29.9363 9.75 33.25 9.75C36.5637 9.75 39.25 12.4363 39.25 15.75Z" fill="#999999"/>
<path fill-rule="evenodd" clip-rule="evenodd" d="M33.25 10.25C30.2124 10.25 27.75 12.7124 27.75 15.75C27.75 18.7876 30.2124 21.25 33.25 21.25C36.2876 21.25 38.75 18.7876 38.75 15.75C38.75 12.7124 36.2876 10.25 33.25 10.25ZM26.75 15.75C26.75 12.1601 29.6601 9.25 33.25 9.25C36.8399 9.25 39.75 12.1601 39.75 15.75C39.75 19.3399 36.8399 22.25 33.25 22.25C29.6601 22.25 26.75 19.3399 26.75 15.75Z" fill="white"/>
<path fill-rule="evenodd" clip-rule="evenodd" d="M36.55 13.35C36.7709 13.5157 36.8157 13.8291 36.65 14.05L33.65 18.05C33.4843 18.2709 33.1709 18.3157 32.95 18.15L30.95 16.65C30.7291 16.4843 30.6843 16.1709 30.85 15.95C31.0157 15.7291 31.3291 15.6843 31.55 15.85L33.15 17.05L35.85 13.45C36.0157 13.2291 36.3291 13.1843 36.55 13.35Z" fill="white"/>
</svg>
